<svg width="18" height="15" viewBox="0 0 18 15" fill="none" xmlns="http://www.w3.org/2000/svg">
<path d="M1.02273 14.25C0.803788 14.25 0.620394 14.1753 0.472545 14.026C0.324182 13.8772 0.25 13.6926 0.25 13.4722C0.25 13.2519 0.324182 13.0673 0.472545 12.9184C0.620394 12.7691 0.803788 12.6944 1.02273 12.6944H16.4773C16.6962 12.6944 16.8796 12.7691 17.0275 12.9184C17.1758 13.0673 17.25 13.2519 17.25 13.4722C17.25 13.6926 17.1758 13.8772 17.0275 14.026C16.8796 14.1753 16.6962 14.25 16.4773 14.25H1.02273ZM2.56818 11.9167C2.14318 11.9167 1.77948 11.7645 1.47709 11.4601C1.17418 11.1552 1.02273 10.7889 1.02273 10.3611V1.80556C1.02273 1.37778 1.17418 1.01144 1.47709 0.706555C1.77948 0.402185 2.14318 0.25 2.56818 0.25H14.9318C15.3568 0.25 15.7208 0.402185 16.0237 0.706555C16.3261 1.01144 16.4773 1.37778 16.4773 1.80556V10.3611C16.4773 10.7889 16.3261 11.1552 16.0237 11.4601C15.7208 11.7645 15.3568 11.9167 14.9318 11.9167H2.56818ZM2.56818 10.3611H14.9318V1.80556H2.56818V10.3611Z" fill="#184B31"/>
</svg>
