<svg width="286" height="32" viewBox="0 0 286 32" fill="none" xmlns="http://www.w3.org/2000/svg">
<g clip-path="url(#clip0_335_175)">
<path d="M31.204 5.05213L28.6065 9.69199C25.6682 7.98809 22.4343 6.37236 17.8779 6.37236C10.8954 6.37236 6.34138 10.3307 6.34138 16.0786C6.34138 21.8266 10.6405 25.6133 17.7087 25.6133C22.3056 25.6133 25.6682 23.9952 28.6923 22.2079L31.1183 26.8478C27.627 28.9759 23.2422 30.8061 17.3679 30.8061C6.34376 30.8061 0 24.6768 0 16.1192C0 7.56152 6.76795 1.17725 17.5824 1.17725C23.3709 1.17725 27.5007 2.83825 31.204 5.05213V5.05213Z" fill="black"/>
<path d="M44.4182 1.17725V30.8061H38.0197V1.17725H44.4182Z" fill="black"/>
<path d="M56.8079 1.21539L67.8677 24.0906H67.9535L79.0134 1.21539H85.9887L70.9371 30.8347H64.6244L49.3178 1.21539H56.8102H56.8079Z" fill="black"/>
<path d="M97.5419 1.17725V30.8347H91.1433V1.17725H97.5419Z" fill="black"/>
<path d="M133.92 1.17725V3.96068H120.3V30.8204H116.971V3.96307H103.354V1.17725H133.92Z" fill="black"/>
<path d="M165.886 1.17725V3.93685H143.664V14.4415H161.304V17.2011H143.664V28.0608H165.886V30.8204H140.335V1.17725H165.886Z" fill="black"/>
<path d="M200.55 5.06169L199.018 7.48766C196.335 5.65746 192.674 3.82725 187.648 3.82725C179.346 3.82725 173.939 9.23446 173.939 16.2598C173.939 23.2851 178.879 28.0965 187.222 28.0965C192.417 28.0965 196.292 26.1805 199.102 24.2217L200.508 26.6071C197.698 28.566 193.184 30.8228 187.01 30.8228C176.662 30.8228 170.66 24.5648 170.66 16.3051C170.66 8.0453 177.175 1.10577 187.606 1.10577C193.482 1.10577 197.569 3.02177 200.548 5.06645L200.55 5.06169Z" fill="black"/>
<path d="M211.62 1.17725V14.3986H233.408V1.17725H236.738V30.8204H233.408V17.244H211.62V30.8204H208.291V1.17725H211.62Z" fill="black"/>
<path d="M251.198 32L248.844 29.6431L262.439 16.0477L248.746 2.35448L251.1 0L267.148 16.0477L251.198 32Z" fill="#0066FF"/>
<path d="M264.312 28.2872L261.955 25.9327L271.855 16.0334L261.884 6.06017L264.238 3.70569L276.566 16.0334L264.312 28.2872Z" fill="#0066FF"/>
<path d="M277.429 24.5648L275.074 22.2103L281.258 16.0238L275.024 9.78966L277.381 7.43518L285.97 16.0238L277.429 24.5648Z" fill="#0066FF"/>
</g>
<defs>
<clipPath id="clip0_335_175">
<rect width="285.97" height="32" fill="white"/>
</clipPath>
</defs>
</svg>
