<svg width="238" height="27" viewBox="0 0 238 27" fill="none" xmlns="http://www.w3.org/2000/svg">
<g clip-path="url(#clip0_794_1128)">
<path d="M27.0504 3.90471L24.7985 7.9735C22.2881 6.48486 19.4463 5.05805 15.4997 5.05805C12.5097 5.05805 10.0745 5.8428 8.26461 7.40991C7.37374 8.15859 6.66203 9.10166 6.18288 10.1683C5.70373 11.235 5.46958 12.3977 5.49799 13.569C5.49799 16.0706 6.38337 18.0872 8.15413 19.6186C9.88885 21.1477 12.2888 21.9325 15.3516 21.9325C19.3358 21.9325 22.2529 20.4771 24.8714 18.9457L26.9752 23.0145C23.9852 24.8455 20.1115 26.4887 15.0554 26.4887C5.49798 26.4887 0 21.074 0 13.607C0 6.36358 5.90463 0.50415 15.2411 0.50415C20.222 0.508906 23.8395 1.96663 27.0504 3.90471Z" fill="white"/>
<path d="M31.7351 1.06763H37.1978V25.9322H31.7351V1.06763Z" fill="white"/>
<path d="M41.1819 1.06763H47.3098L56.4982 20.2939H56.5711L65.7618 1.06763H71.7017L59.1167 26.12H53.7292L41.1819 1.06763Z" fill="white"/>
<path d="M75.6509 1.06763H81.1136V25.9322H75.6509V1.06763Z" fill="white"/>
<path d="M85.3562 1.06763H111.448V3.41949H99.8216V25.9322H96.9798V3.41949H85.3562V1.06763Z" fill="white"/>
<path d="M116.208 1.06763H138.018V3.39333H119.056V12.192H134.1V14.5058H119.056V23.616H138.026V25.9298H116.208V1.06763Z" fill="white"/>
<path d="M167.283 3.94274L165.955 6.07107C163.63 4.46591 160.42 2.86075 156.102 2.86075C148.904 2.86075 144.217 7.60013 144.217 13.7616C144.217 19.8089 148.5 24.1392 155.735 24.1392C160.201 24.1392 163.633 22.4223 166.03 20.7434L167.248 22.8337C165.758 23.8343 164.162 24.6607 162.488 25.2973C160.532 26.1201 158.208 26.5291 155.549 26.5291C146.582 26.5291 141.38 21.0407 141.38 13.7996C141.38 6.6299 147.061 0.482729 156.066 0.482729C161.132 0.470839 164.738 2.14972 167.283 3.94274Z" fill="white"/>
<path d="M172.781 1.06763H175.623V12.1563H194.223V1.06763H197.065V25.9322H194.223V14.5462H175.623V25.9322H172.781V1.06763Z" fill="white"/>
<path d="M209.069 27L206.909 24.8146L218.093 13.5L206.909 2.1854L209.069 0L222.413 13.5L209.069 27Z" fill="#0066FF"/>
<path d="M220.22 23.9655L218.058 21.7801L226.172 13.5712L217.919 5.22202L220.079 3.03662L230.495 13.5712L220.22 23.9655Z" fill="#0066FF"/>
<path d="M230.944 20.6911L228.783 18.5057L233.68 13.5523L228.68 8.49661L230.84 6.30884L238 13.5523L230.944 20.6911Z" fill="#0066FF"/>
</g>
<defs>
<clipPath id="clip0_794_1128">
<rect width="238" height="27" fill="white"/>
</clipPath>
</defs>
</svg>
