<svg width="67" height="31" viewBox="0 0 67 31" fill="none" xmlns="http://www.w3.org/2000/svg">
<path d="M0.931478 12.48H2.19711C2.53044 12.48 2.79607 12.8133 2.79607 13.079V17.8394C2.79607 18.1727 2.52524 18.4383 2.19711 18.4383H0.931478C0.598145 18.4383 0.33252 18.105 0.33252 17.8394V13.079C0.33252 12.7456 0.603345 12.48 0.931478 12.48Z" fill="#D3FFD7"/>
<path d="M5.86361 7.34933H7.12923C7.46257 7.34933 7.7282 7.68267 7.7282 7.94829V22.9643C7.7282 23.2976 7.45737 23.5633 7.12923 23.5633H5.86361C5.53028 23.5633 5.26465 23.2299 5.26465 22.9643V7.94829C5.26465 7.61496 5.53548 7.34933 5.86361 7.34933Z" fill="#D3FFD7"/>
<path d="M10.8114 9.28133H12.077C12.4103 9.28133 12.6759 9.61466 12.6759 9.88029V21.0158C12.6759 21.3491 12.4051 21.6147 12.077 21.6147H10.8114C10.478 21.6147 10.2124 21.2814 10.2124 21.0158V9.88029C10.2124 9.54696 10.4832 9.28133 10.8114 9.28133Z" fill="#D3FFD7"/>
<path d="M15.745 4.73466H17.0106C17.3439 4.73466 17.6095 5.068 17.6095 5.33363V25.5736C17.6095 25.907 17.3387 26.1726 17.0106 26.1726H15.745C15.4116 26.1726 15.146 25.8393 15.146 25.5736V5.33363C15.146 5.0003 15.4168 4.73466 15.745 4.73466Z" fill="#D3FFD7"/>
<path d="M20.682 10.48H21.9476C22.2809 10.48 22.5466 10.8133 22.5466 11.079V19.8238C22.5466 20.1571 22.2757 20.4227 21.9476 20.4227H20.682C20.3486 20.4227 20.083 20.0894 20.083 19.8238V11.079C20.083 10.7456 20.3538 10.48 20.682 10.48Z" fill="#D3FFD7"/>
<path d="M25.6248 12.48H26.8905C27.2238 12.48 27.4894 12.8133 27.4894 13.079V17.8394C27.4894 18.1727 27.2186 18.4383 26.8905 18.4383H25.6248C25.2915 18.4383 25.0259 18.105 25.0259 17.8394V13.079C25.0259 12.7456 25.2967 12.48 25.6248 12.48Z" fill="#D3FFD7"/>
<path d="M30.5623 7.104H31.828C32.1613 7.104 32.4269 7.43734 32.4269 7.70297V23.2083C32.4269 23.5416 32.1561 23.8073 31.828 23.8073H30.5623C30.229 23.8073 29.9634 23.4739 29.9634 23.2083V7.70297C29.9634 7.36963 30.2342 7.104 30.5623 7.104Z" fill="#D3FFD7"/>
<path d="M35.5047 0H36.7704C37.1037 0 37.3693 0.333332 37.3693 0.598958V30.307C37.3693 30.6403 37.0985 30.9059 36.7704 30.9059H35.5047C35.1714 30.9059 34.9058 30.5726 34.9058 30.307V0.598958C34.9058 0.265625 35.1766 0 35.5047 0Z" fill="#D3FFD7"/>
<path d="M40.4368 3.92267H41.7025C42.0358 3.92267 42.3014 4.256 42.3014 4.52163V26.3856C42.3014 26.719 42.0306 26.9846 41.7025 26.9846H40.4368C40.1035 26.9846 39.8379 26.6513 39.8379 26.3856V4.52163C39.8379 4.18829 40.1087 3.92267 40.4368 3.92267Z" fill="#D3FFD7"/>
<path d="M45.3743 10.48H46.64C46.9733 10.48 47.2389 10.8133 47.2389 11.079V19.8238C47.2389 20.1571 46.9681 20.4227 46.64 20.4227H45.3743C45.041 20.4227 44.7754 20.0894 44.7754 19.8238V11.079C44.7754 10.7456 45.0462 10.48 45.3743 10.48Z" fill="#D3FFD7"/>
<path d="M50.3167 7.59866H51.5824C51.9157 7.59866 52.1813 7.932 52.1813 8.19762V22.703C52.1813 23.0363 51.9105 23.3019 51.5824 23.3019H50.3167C49.9834 23.3019 49.7178 22.9686 49.7178 22.703V8.19762C49.7178 7.86429 49.9886 7.59866 50.3167 7.59866Z" fill="#D3FFD7"/>
<path d="M55.2542 10.48H56.5199C56.8532 10.48 57.1188 10.8133 57.1188 11.079V19.8238C57.1188 20.1571 56.848 20.4227 56.5199 20.4227H55.2542C54.9209 20.4227 54.6553 20.0894 54.6553 19.8238V11.079C54.6553 10.7456 54.9261 10.48 55.2542 10.48Z" fill="#D3FFD7"/>
<path d="M60.1873 6.136H61.453C61.7863 6.136 62.0519 6.46933 62.0519 6.73496V24.1883C62.0519 24.5216 61.7811 24.7873 61.453 24.7873H60.1873C59.854 24.7873 59.5884 24.4539 59.5884 24.1883V6.73496C59.5884 6.40163 59.8592 6.136 60.1873 6.136Z" fill="#D3FFD7"/>
<path d="M65.1356 12.48H66.4012C66.7345 12.48 67.0002 12.8133 67.0002 13.079V17.8394C67.0002 18.1727 66.7293 18.4383 66.4012 18.4383H65.1356C64.8022 18.4383 64.5366 18.105 64.5366 17.8394V13.079C64.5366 12.7456 64.8074 12.48 65.1356 12.48Z" fill="#D3FFD7"/>
</svg>
