<svg width="13" height="59" viewBox="0 0 13 59" fill="none" xmlns="http://www.w3.org/2000/svg">
<path d="M12.16 53.36C12.16 53.9307 12.088 54.4907 11.944 55.04C11.8 55.5893 11.584 56.0907 11.296 56.544C11.008 56.9973 10.648 57.3733 10.216 57.672C9.784 57.9653 9.27733 58.1413 8.696 58.2L8.696 55.808C9.048 55.728 9.344 55.576 9.584 55.352C9.824 55.128 10.008 54.8453 10.136 54.504C10.264 54.1627 10.328 53.784 10.328 53.368C10.328 52.9413 10.2747 52.552 10.168 52.2C10.0613 51.848 9.90133 51.5653 9.688 51.352C9.46933 51.1387 9.19733 51.032 8.872 51.032C8.57867 51.032 8.33867 51.12 8.152 51.296C7.96533 51.4667 7.81333 51.6987 7.696 51.992C7.57867 52.2853 7.48267 52.6187 7.408 52.992L7 54.992C6.83467 55.8667 6.488 56.56 5.96 57.072C5.42667 57.584 4.71733 57.848 3.832 57.864C3.10667 57.8693 2.48 57.6773 1.952 57.288C1.41867 56.8933 1.008 56.36 0.719999 55.688C0.431999 55.0107 0.287999 54.2533 0.287999 53.416C0.287999 52.4187 0.445332 51.5813 0.759999 50.904C1.06933 50.2213 1.49067 49.704 2.024 49.352C2.552 48.9947 3.14133 48.8107 3.792 48.8L3.792 51.144C3.38667 51.1867 3.064 51.3093 2.824 51.512C2.584 51.7147 2.41067 51.976 2.304 52.296C2.19733 52.6107 2.144 52.9707 2.144 53.376C2.144 53.6853 2.17867 53.968 2.248 54.224C2.31733 54.4747 2.416 54.688 2.544 54.864C2.66667 55.04 2.81333 55.176 2.984 55.272C3.15467 55.368 3.34667 55.416 3.56 55.416C3.896 55.416 4.168 55.304 4.376 55.08C4.584 54.856 4.75467 54.4373 4.888 53.824L5.296 51.84C5.43467 51.1307 5.64 50.568 5.912 50.152C6.184 49.7307 6.49067 49.416 6.832 49.208C7.17333 48.9947 7.52267 48.856 7.88 48.792C8.232 48.7227 8.55733 48.688 8.856 48.688C9.48 48.688 10.0427 48.8853 10.544 49.28C11.04 49.6693 11.4347 50.2133 11.728 50.912C12.016 51.6107 12.16 52.4267 12.16 53.36ZM7.032 38.4339L7.032 43.4979L12 43.4979L12 45.8259L0.431999 45.8259L0.431999 43.4979L5.072 43.4979L5.072 38.4339L0.431998 38.4339L0.431998 36.0979L12 36.0979L12 38.4339L7.032 38.4339ZM12 33.5694L0.431998 29.4254L0.431998 26.9614L12 22.8254L12 25.1534L9.32 26.0974L9.32 30.2574L12 31.2254L12 33.5694ZM7.28 29.7374L7.28 26.6574L2.688 28.1854L7.28 29.7374ZM12 11.3124L12 13.7364L7.544 15.6164L7.544 17.9604L12 17.9604L12 20.2884L0.431998 20.2884L0.431997 15.4084C0.431997 14.4857 0.578664 13.731 0.871998 13.1444C1.16533 12.5577 1.57333 12.1257 2.096 11.8484C2.61333 11.571 3.21066 11.4324 3.888 11.4324C4.496 11.4324 5.01066 11.5284 5.432 11.7204C5.848 11.907 6.19466 12.155 6.472 12.4644C6.74933 12.7684 6.976 13.1017 7.152 13.4644L12 11.3124ZM5.744 15.8244C5.744 15.2004 5.576 14.707 5.24 14.3444C4.904 13.9764 4.472 13.7924 3.944 13.7924C3.41066 13.7924 2.98933 13.9684 2.68 14.3204C2.37066 14.6724 2.216 15.1177 2.216 15.6564L2.216 17.9604L5.744 17.9604L5.744 15.8244ZM12 8.34775L0.431997 8.34775L0.431997 0.403748L2.4 0.411749L2.4 6.00375L5.208 6.00375L5.208 1.14775L7.136 1.14775L7.136 6.01975L10.008 6.01975L10.016 0.323748L12 0.323748L12 8.34775Z" fill="#003366"/>
</svg>
