<svg width="201" height="60" viewBox="0 0 201 60" fill="none" xmlns="http://www.w3.org/2000/svg">
<path d="M68.8026 1.46468C65.5526 0.994682 61.8026 -0.725318 59.1426 0.344682C51.8726 3.26468 44.8726 1.55468 37.8026 0.654682C35.6726 0.384682 34.3726 0.364682 33.4726 0.904682H33.4026V0.994682C32.4026 1.61468 31.9826 2.92468 31.6526 5.37468C30.6526 12.9847 28.3126 15.6147 22.1826 16.1347C15.5826 16.6847 15.5326 16.6847 14.1826 23.1347C13.5126 26.3547 12.4226 28.5947 8.46259 28.7347C1.70259 28.9947 -0.477413 31.5647 0.152587 38.4247C0.474267 41.6747 0.450803 44.9496 0.0825872 48.1947C-0.497413 53.0847 2.00259 56.0447 6.79259 56.8747C8.48259 57.1747 10.2326 57.1047 11.9226 57.3947C20.1226 58.7647 28.2926 57.3947 36.4726 57.2447C58.9626 56.8247 61.4726 56.5347 83.9326 55.9147C85.9326 55.8547 90.0726 55.5947 90.0726 55.5947C90.0726 55.5947 124.613 55.3347 132.003 55.5947V1.68468C132.003 1.68468 69.1826 1.52468 68.8026 1.46468Z" fill="#655DC6"/>
<path d="M196.073 36.4307C196.722 36.7017 197.433 36.7882 198.128 36.6805C198.824 36.5729 199.476 36.2753 200.013 35.8207C197.883 34.9507 195.703 35.2407 193.753 33.9907C194.173 33.9957 194.594 33.9757 195.013 33.9307C196.103 33.7207 197.893 35.0907 198.163 33.4607C198.211 33.0725 198.166 32.6784 198.033 32.3107C197.9 31.9345 197.685 31.5928 197.403 31.3107C197.123 31.0281 196.78 30.8156 196.403 30.6907C196.031 30.5596 195.635 30.5118 195.243 30.5507C193.573 30.6607 193.493 29.0107 192.313 28.5507C193.123 28.1807 194.003 28.8607 194.683 28.0507C193.073 25.1407 189.473 26.5007 187.303 24.6107C189.533 22.8807 192.063 24.8507 194.873 23.7907C192.313 23.3207 190.223 22.9607 188.403 21.9107C189.283 21.4607 190.333 22.3707 191.243 21.5407C187.133 20.4007 187.133 20.4007 185.473 17.3507L189.173 18.2507C188.913 14.2507 192.823 16.5907 193.943 15.0307C191.153 14.0307 189.503 10.6707 185.863 11.2007C188.783 10.2607 191.783 11.3907 194.863 10.4407C192.543 8.38073 189.183 9.89073 187.163 7.52073C188.677 7.4191 190.199 7.47271 191.703 7.68073C193.123 7.81073 194.753 9.41073 196.213 6.91073C191.103 7.62073 186.843 5.32073 182.213 4.85073C186.553 4.19073 190.733 5.35073 195.053 5.72073C192.213 4.53073 190.303 2.10073 186.863 1.48073C177.753 0.0145587 168.499 -0.348057 159.303 0.40073C156.829 0.122392 154.342 -0.0111693 151.853 0.000730125C149.533 0.000730125 146.853 0.000730127 144.003 0.0707301C139.813 0.77073 135.413 1.51073 132.003 1.70073V55.6007C134.213 55.6907 141.313 56.4507 146.503 56.4807H153.193C154.473 56.7307 155.723 57.0407 156.963 57.4007C157.023 57.1007 157.093 56.8107 157.163 56.5107C163.383 56.6407 169.573 57.2207 175.553 59.6307C177.073 60.2407 178.763 60.3907 179.103 57.7007C179.303 55.9507 180.703 54.7807 182.863 55.2407C184.073 55.4907 185.343 55.4607 186.573 55.6307C189.453 56.0007 186.473 54.4007 187.283 53.9407C187.453 53.9407 187.773 54.0007 188.093 54.0207C189.663 54.1507 191.683 55.9507 192.683 53.7507C193.843 51.2307 195.063 48.3607 191.353 46.3107C188.818 44.9653 186.132 43.9247 183.353 43.2107C186.353 42.1107 188.853 42.4107 190.963 43.9107C193.073 45.4107 193.693 44.3407 194.433 42.5007C195.033 41.0507 194.613 38.4207 195.213 38.3007C198.903 37.6007 193.133 37.0007 196.073 36.4307Z" fill="#655DC6"/>
</svg>
