<svg width="193" height="40" viewBox="0 0 193 40" fill="none" xmlns="http://www.w3.org/2000/svg">
<path d="M45.8675 0.984903C43.7009 0.668859 41.2009 -0.487729 39.4276 0.231776C34.581 2.19529 29.9145 1.04542 25.2012 0.440231C23.7813 0.258673 22.9146 0.245225 22.3146 0.60834H22.268V0.668859C21.6013 1.08577 21.3213 1.96666 21.1013 3.61412C20.4347 8.73136 18.8747 10.4999 14.7881 10.8495C10.3882 11.2194 10.3549 11.2194 9.45487 15.5566C9.00821 17.7218 8.28156 19.2281 5.64161 19.3222C1.13504 19.497 -0.318269 21.2252 0.101723 25.8381C0.316172 28.0235 0.30053 30.2257 0.0550571 32.4078C-0.331602 35.696 1.33503 37.6864 4.5283 38.2445C5.65495 38.4463 6.82159 38.3992 7.94824 38.5942C13.4148 39.5154 18.8614 38.5942 24.3146 38.4933C39.3076 38.2109 40.9809 38.0159 55.954 37.599C57.2873 37.5587 60.0472 37.3838 60.0472 37.3838C60.0472 37.3838 143.073 37.209 148 37.3838V1.13284C148 1.13284 46.1208 1.02525 45.8675 0.984903Z" fill="#FD495C"/>
<path d="M190.393 24.2871C190.823 24.4678 191.293 24.5254 191.753 24.4536C192.213 24.3819 192.645 24.1835 193 23.8804C191.591 23.3004 190.148 23.4938 188.858 22.6604C189.136 22.6637 189.415 22.6504 189.692 22.6204C190.413 22.4804 191.597 23.3938 191.776 22.3071C191.808 22.0483 191.778 21.7856 191.69 21.5404C191.602 21.2896 191.46 21.0618 191.273 20.8738C191.088 20.6853 190.861 20.5437 190.611 20.4604C190.365 20.373 190.103 20.3412 189.844 20.3671C188.739 20.4404 188.686 19.3404 187.905 19.0338C188.441 18.7871 189.023 19.2404 189.473 18.7004C188.408 16.7604 186.026 17.6671 184.59 16.4071C186.066 15.2538 187.74 16.5671 189.599 15.8604C187.905 15.5471 186.522 15.3071 185.318 14.6071C185.9 14.3071 186.595 14.9138 187.197 14.3605C184.478 13.6005 184.478 13.6005 183.379 11.5671L185.828 12.1671C185.655 9.50046 188.243 11.0605 188.984 10.0205C187.138 9.3538 186.046 7.1138 183.637 7.46714C185.569 6.84047 187.554 7.5938 189.592 6.96047C188.057 5.58714 185.834 6.5938 184.498 5.01381C185.5 4.94605 186.506 4.9818 187.502 5.12047C188.441 5.20714 189.52 6.27381 190.486 4.60714C187.105 5.08047 184.286 3.54714 181.222 3.23381C184.094 2.79381 186.86 3.56714 189.718 3.81381C187.839 3.02048 186.575 1.40048 184.299 0.987151C178.271 0.00970576 172.149 -0.232038 166.064 0.267153C164.427 0.0815943 162.781 -0.00744619 161.134 0.000486749C159.599 0.000486749 157.826 0.00048675 155.94 0.0471533C153.168 0.513819 150.256 1.00715 148 1.13382V37.0671C149.462 37.1271 154.16 37.6337 157.594 37.6537H162.021C162.868 37.8204 163.695 38.0271 164.515 38.2671C164.555 38.0671 164.601 37.8737 164.648 37.6737C168.763 37.7604 172.859 38.1471 176.816 39.7537C177.821 40.1604 178.94 40.2604 179.165 38.4671C179.297 37.3004 180.223 36.5204 181.652 36.8271C182.453 36.9937 183.293 36.9737 184.107 37.0871C186.013 37.3337 184.041 36.2671 184.577 35.9604C184.689 35.9604 184.901 36.0004 185.113 36.0137C186.152 36.1004 187.488 37.3004 188.15 35.8337C188.918 34.1537 189.725 32.2404 187.27 30.8737C185.593 29.9768 183.816 29.2831 181.977 28.8071C183.962 28.0738 185.616 28.2738 187.012 29.2737C188.408 30.2737 188.818 29.5604 189.308 28.3338C189.705 27.3671 189.427 25.6138 189.824 25.5338C192.266 25.0671 188.448 24.6671 190.393 24.2871Z" fill="#FD495C"/>
</svg>
