<svg width="17" height="13" viewBox="0 0 17 13" fill="none" xmlns="http://www.w3.org/2000/svg">
<path d="M6.175 12.05C5.725 12.05 5.4 11.925 5.075 11.6L0.15 6.7C0.025 6.575 0 6.475 0 6.3C0 6.125 0.025 6.025 0.15 5.9L5.05 1.025C5.375 0.699999 5.7 0.575 6.15 0.575H8.025C8.275 0.575 8.425 0.625 8.425 0.724999C8.425 0.774999 8.35 0.899999 8.225 1.025L4.05 5.125H15.6C16.05 5.125 16.3 5.4 16.3 6.075V6.5C16.3 7.175 16.05 7.45 15.6 7.45H4.025L8.25 11.6C8.375 11.725 8.45 11.825 8.45 11.9C8.45 12 8.3 12.05 8.05 12.05H6.175Z" fill="#36845B"/>
</svg>
