<svg width="10" height="6" viewBox="0 0 10 6" fill="none" xmlns="http://www.w3.org/2000/svg">
<path d="M5 6C4.88042 6 4.76472 5.9771 4.65291 5.9313C4.54051 5.8855 4.44693 5.82443 4.3722 5.74809L0.246636 1.53435C0.0822117 1.36641 -2.01539e-07 1.15267 -1.5616e-07 0.893129C-1.1078e-07 0.633587 0.0822118 0.419847 0.246636 0.251908C0.411061 0.0839692 0.620329 1.08462e-07 0.874439 1.52892e-07C1.12855 1.97322e-07 1.33782 0.0839693 1.50224 0.251908L5 3.82443L8.49776 0.25191C8.66218 0.0839706 8.87145 1.55113e-06 9.12556 1.59556e-06C9.37967 1.63999e-06 9.58894 0.0839708 9.75336 0.25191C9.91779 0.419849 10 0.633589 10 0.893131C10 1.15267 9.91779 1.36641 9.75336 1.53435L5.6278 5.74809C5.53811 5.83969 5.44096 5.90443 5.33632 5.94229C5.23169 5.98076 5.11958 6 5 6Z" fill="#36845B"/>
</svg>
