<svg width="10" height="6" viewBox="0 0 10 6" fill="none" xmlns="http://www.w3.org/2000/svg">
<path d="M5 6C4.88042 6 4.76472 5.9771 4.65291 5.9313C4.54051 5.8855 4.44694 5.82443 4.3722 5.74809L0.246636 1.53435C0.0822118 1.36641 -1.0077e-07 1.15267 -7.80798e-08 0.893129C-5.539e-08 0.633587 0.0822119 0.419847 0.246636 0.251908C0.411061 0.0839691 0.620329 5.42309e-08 0.874439 7.64459e-08C1.12855 9.8661e-08 1.33782 0.0839692 1.50224 0.251908L5 3.82443L8.49776 0.251909C8.66218 0.0839699 8.87145 7.75567e-07 9.12556 7.97782e-07C9.37967 8.19997e-07 9.58894 0.0839699 9.75336 0.251909C9.91779 0.419848 10 0.633588 10 0.89313C10 1.15267 9.91779 1.36641 9.75336 1.53435L5.6278 5.74809C5.53812 5.83969 5.44096 5.90443 5.33632 5.94229C5.23169 5.98076 5.11958 6 5 6Z" fill="#333333"/>
</svg>
