<svg width="242" height="222" viewBox="0 0 242 222" fill="none" xmlns="http://www.w3.org/2000/svg">
<path d="M241.994 222.181H0C0 173.545 87.2945 166.912 148.069 134.856C196.689 109.211 230.944 34.2668 241.994 0V222.181Z" fill="#36845B"/>
<rect width="77.1266" height="69.3432" transform="translate(139.394 137.271)" fill="#36845B"/>
<path d="M182.175 138.303C182.175 138.303 181.8 138.88 181.219 139.809C180.639 140.738 179.849 142.07 179.035 143.588C178.165 145.196 177.384 146.852 176.698 148.549C176.019 150.172 175.539 151.873 175.27 153.615C175.066 154.925 175.164 156.266 175.555 157.532C176.061 159.084 177.139 160.378 178.563 161.144C178.803 161.279 179.054 161.391 179.314 161.478C179.314 161.478 179.672 161.178 180.213 160.63C180.938 159.893 181.614 159.109 182.238 158.282C183.085 157.178 183.815 155.987 184.416 154.728C185.093 153.321 185.539 151.81 185.735 150.257C185.906 148.716 185.825 147.156 185.497 145.641C185.214 144.329 184.791 143.052 184.234 141.834C183.831 140.935 183.366 140.068 182.84 139.237C182.635 138.907 182.413 138.587 182.175 138.28" fill="#FFDC2E"/>
<path d="M155.207 173.473H155.103C153.374 173.758 151.546 174.167 149.788 174.611C148.03 175.055 146.329 175.555 144.83 176.01C143.331 176.465 142.04 176.897 141.089 177.21C140.138 177.523 139.521 177.734 139.394 177.751C139.763 178.109 140.166 178.431 140.599 178.712C141.623 179.411 142.698 180.035 143.816 180.578C145.273 181.299 146.809 181.856 148.393 182.238C150.122 182.664 151.917 182.768 153.685 182.546H153.933C154.792 182.429 155.638 182.239 156.463 181.977C157.229 181.74 157.977 181.449 158.7 181.107C159.366 180.789 160.013 180.434 160.637 180.043C161.214 179.667 161.79 179.281 162.257 178.905C162.724 178.53 163.174 178.154 163.543 177.813C163.912 177.472 164.234 177.153 164.488 176.886C164.742 176.619 164.938 176.397 165.065 176.243C165.191 176.09 165.266 175.999 165.272 175.999C165.108 175.784 164.914 175.592 164.696 175.43C164.149 174.997 163.548 174.633 162.908 174.349C161.914 173.911 160.862 173.614 159.784 173.468C158.268 173.271 156.731 173.285 155.218 173.507" fill="#FFDC2E"/>
<path d="M202.227 162.137H202.152H202.083H202.014H201.946C200.285 162.385 198.675 162.894 197.175 163.647C195.914 164.274 194.727 165.041 193.639 165.935C192.848 166.582 192.108 167.288 191.423 168.046C190.918 168.618 190.654 168.972 190.643 168.972C190.805 169.19 190.998 169.383 191.217 169.544C191.784 169.999 192.405 170.383 193.065 170.688C194.081 171.16 195.16 171.484 196.268 171.65C197.816 171.872 199.388 171.872 200.935 171.65C202.754 171.368 204.555 170.986 206.331 170.505C208.099 170.031 209.776 169.499 211.28 168.995C212.784 168.492 214.029 168.023 214.953 167.68C215.878 167.336 216.44 167.108 216.521 167.108C216.137 166.734 215.718 166.398 215.269 166.106C214.23 165.379 213.14 164.725 212.009 164.15C210.548 163.406 209.007 162.83 207.416 162.434C205.715 161.987 203.943 161.871 202.198 162.091" fill="#FFDC2E"/>
<path d="M147.005 161.983C147.034 162.046 147.245 162.558 147.633 163.329C148.143 164.324 148.715 165.285 149.346 166.207C150.133 167.386 151.046 168.474 152.069 169.452C153.14 170.497 154.4 171.325 155.78 171.892C156.229 172.07 156.691 172.212 157.162 172.318C157.614 172.425 158.074 172.496 158.537 172.531C158.987 172.571 159.439 172.583 159.89 172.565C160.33 172.565 160.77 172.508 161.192 172.45C161.615 172.393 162.071 172.301 162.488 172.203C162.905 172.105 163.304 171.984 163.687 171.863C164.069 171.743 164.435 171.61 164.772 171.472C165.108 171.334 165.422 171.202 165.708 171.069C165.993 170.937 166.25 170.805 166.479 170.689L167.049 170.367L167.421 170.148L167.552 170.068C167.563 169.774 167.549 169.479 167.512 169.187C167.429 168.491 167.252 167.81 166.987 167.162C166.618 166.279 166.072 165.484 165.382 164.825C164.448 163.969 163.325 163.347 162.106 163.013C160.55 162.636 158.968 162.384 157.373 162.259C155.706 162.109 154.016 162.046 152.497 162.023C150.979 162 149.643 162.023 148.65 162.023C148.105 162.055 147.559 162.043 147.017 161.988" fill="#FFDC2E"/>
<path d="M162.48 148.618C162.48 148.618 162.378 149.147 162.263 150.011C162.112 151.143 162.02 152.282 161.989 153.424C161.937 154.846 162.019 156.27 162.235 157.678C162.425 159.079 162.885 160.43 163.589 161.659C164.1 162.5 164.796 163.216 165.624 163.751C166.365 164.219 167.181 164.555 168.036 164.747C168.786 164.916 169.553 165.003 170.322 165.008C170.896 165.011 171.469 164.973 172.037 164.895L172.311 164.849L172.523 164.815H172.649H172.694C172.694 164.815 172.912 164.451 173.192 163.837C173.555 163.039 173.845 162.212 174.06 161.363C174.343 160.293 174.453 159.186 174.386 158.081C174.312 156.864 173.918 155.687 173.243 154.669C172.458 153.585 171.468 152.664 170.328 151.956C169.194 151.235 167.994 150.622 166.744 150.125C165.601 149.653 164.498 149.306 163.709 149.073C162.921 148.84 162.429 148.715 162.435 148.692" fill="#FFDC2E"/>
<path d="M208.571 149.109C207.751 149.221 206.851 149.379 205.933 149.593C204.963 149.81 204.005 150.081 203.066 150.404C202.056 150.743 201.071 151.15 200.118 151.62C199.131 152.106 198.187 152.671 197.296 153.31C195.831 154.328 194.5 155.52 193.333 156.858C192.439 157.889 191.658 159.01 191.004 160.203C190.565 161 190.197 161.833 189.903 162.692C189.791 163.011 189.699 163.336 189.628 163.666L189.88 163.7C190.047 163.7 190.293 163.739 190.614 163.745C190.936 163.751 191.32 163.745 191.761 163.745C192.203 163.745 192.725 163.678 193.287 163.599C193.885 163.518 194.478 163.407 195.065 163.266C195.748 163.115 196.422 162.927 197.084 162.703C197.838 162.443 198.577 162.142 199.297 161.802C200.108 161.42 200.895 160.991 201.655 160.518C203.292 159.487 204.828 158.309 206.243 156.999C207.534 155.804 208.758 154.541 209.908 153.214C210.94 152.02 211.772 150.962 212.339 150.19C212.907 149.418 213.223 148.951 213.223 148.945C213.223 148.94 213.108 148.895 212.884 148.878C212.661 148.861 212.311 148.878 211.932 148.878C211.554 148.878 211.026 148.906 210.464 148.945C209.902 148.985 209.265 149.052 208.589 149.148" fill="#FFDC2E"/>
<path d="M200.791 137.271C200.261 137.602 199.749 137.96 199.257 138.345C198.331 139.023 197.075 139.999 195.685 141.182C194.165 142.47 192.714 143.835 191.338 145.272C189.902 146.758 188.607 148.373 187.471 150.096C186.545 151.491 185.822 153.009 185.323 154.605C184.982 155.722 184.808 156.883 184.808 158.051C184.812 158.788 184.911 159.521 185.103 160.233C185.168 160.487 185.255 160.735 185.363 160.974C185.363 160.974 185.769 160.83 186.446 160.52C187.378 160.088 188.281 159.597 189.149 159.05C190.386 158.268 191.549 157.376 192.623 156.385C193.942 155.178 195.108 153.816 196.096 152.33C197.124 150.74 197.968 149.041 198.614 147.265C199.2 145.674 199.67 144.045 200.021 142.388C200.34 140.912 200.531 139.632 200.635 138.724C200.739 137.817 200.768 137.277 200.774 137.271" fill="#FFDC2E"/>
<path d="M176.46 183.439C176.46 183.439 176.105 183.731 175.558 184.263C174.826 184.981 174.141 185.746 173.507 186.554C172.655 187.629 171.916 188.792 171.304 190.024C170.611 191.399 170.148 192.882 169.935 194.411C169.753 195.94 169.83 197.489 170.16 198.992C170.458 200.335 170.894 201.642 171.462 202.892C171.888 203.827 172.375 204.732 172.921 205.601C173.137 205.951 173.37 206.289 173.62 206.614C173.62 206.614 174.014 206.076 174.617 205.16C175.22 204.244 176.026 202.967 176.871 201.483C177.766 199.906 178.56 198.273 179.249 196.593C179.938 194.975 180.412 193.27 180.658 191.525C180.849 190.18 180.736 188.809 180.325 187.516C180.019 186.592 179.517 185.748 178.855 185.042C178.382 184.54 177.839 184.112 177.243 183.771C176.997 183.628 176.739 183.509 176.471 183.416" fill="#FFDC2E"/>
<path d="M162.209 181.083C161.669 181.157 161.061 181.26 160.447 181.409C159.832 181.558 159.143 181.742 158.437 181.982C157.689 182.229 156.955 182.516 156.238 182.842C155.431 183.201 154.645 183.604 153.884 184.051C152.219 185.041 150.633 186.157 149.141 187.392C147.683 188.59 146.374 189.816 145.266 190.916C144.158 192.016 143.268 193.002 142.648 193.707C142.028 194.412 141.683 194.853 141.677 194.853C141.672 194.853 141.844 194.916 142.154 194.95C142.464 194.985 142.923 195.008 143.492 195.013C144.06 195.019 144.743 195.013 145.507 194.962C146.271 194.91 147.12 194.836 148.022 194.71C148.803 194.601 149.618 194.457 150.456 194.268C151.321 194.079 152.176 193.845 153.017 193.569C153.894 193.281 154.753 192.94 155.589 192.549C156.442 192.15 157.264 191.686 158.047 191.162C159.556 190.196 160.936 189.041 162.152 187.724C163.083 186.723 163.899 185.622 164.586 184.441C165.04 183.652 165.424 182.826 165.734 181.971C165.852 181.65 165.952 181.323 166.033 180.991C165.945 180.968 165.854 180.952 165.763 180.945C165.585 180.945 165.327 180.911 165 180.899C164.672 180.888 164.265 180.899 163.794 180.899C163.323 180.899 162.795 180.968 162.203 181.054" fill="#FFDC2E"/>
<path d="M170.261 183.926C170.261 183.926 169.853 184.062 169.174 184.357C168.228 184.754 167.31 185.211 166.424 185.726C165.167 186.462 163.976 187.304 162.864 188.241C161.521 189.374 160.316 190.658 159.274 192.067C158.201 193.557 157.302 195.163 156.594 196.853C155.957 198.354 155.433 199.898 155.023 201.474C154.721 202.625 154.477 203.79 154.293 204.966C154.155 205.834 154.109 206.351 154.109 206.362C154.679 206.074 155.233 205.754 155.766 205.403C156.743 204.795 158.066 203.921 159.51 202.848C161.092 201.685 162.604 200.432 164.037 199.095C165.535 197.723 166.885 196.201 168.064 194.554C169.017 193.215 169.763 191.743 170.278 190.188C170.646 189.106 170.84 187.974 170.853 186.833C170.856 186.106 170.759 185.382 170.566 184.681C170.499 184.419 170.406 184.164 170.29 183.92" fill="#FFDC2E"/>
<path d="M194.596 172.693C194.153 172.753 193.728 172.833 193.323 172.931C192.91 173.027 192.52 173.135 192.147 173.254C191.774 173.374 191.424 173.498 191.091 173.629C190.758 173.759 190.46 173.884 190.185 174.009C189.909 174.134 189.651 174.259 189.433 174.372C189.215 174.486 189.02 174.588 188.86 174.679L188.498 174.883L188.361 174.962C188.354 175.262 188.373 175.562 188.418 175.859C188.512 176.57 188.706 177.265 188.992 177.925C189.394 178.844 189.979 179.674 190.713 180.365C191.694 181.276 192.871 181.956 194.154 182.356C195.777 182.813 197.432 183.149 199.105 183.361C200.826 183.599 202.604 183.752 204.188 183.855C205.771 183.957 207.171 184.013 208.203 184.053C208.779 184.044 209.355 184.084 209.924 184.172C209.924 184.099 209.643 183.537 209.202 182.697C208.611 181.614 207.96 180.565 207.251 179.553C206.383 178.276 205.385 177.09 204.274 176.012C203.15 174.893 201.825 173.99 200.367 173.351C199.885 173.152 199.389 172.991 198.881 172.869C198.398 172.752 197.908 172.671 197.413 172.625C196.936 172.579 196.457 172.563 195.979 172.579C195.518 172.591 195.058 172.629 194.602 172.693" fill="#FFDC2E"/>
<path d="M183.646 180.064H183.461H183.323H183.236H183.208C183.208 180.064 182.988 180.43 182.706 181.054C182.339 181.86 182.048 182.697 181.836 183.556C181.557 184.657 181.456 185.795 181.536 186.928C181.633 188.204 182.053 189.435 182.758 190.506C183.611 191.674 184.665 192.684 185.87 193.489C187.09 194.321 188.378 195.048 189.721 195.665C190.977 196.237 192.142 196.706 192.989 197.021C193.836 197.336 194.366 197.508 194.361 197.537C194.361 197.537 194.453 196.964 194.545 196.06C194.637 195.155 194.712 193.873 194.701 192.447C194.699 190.922 194.558 189.401 194.28 187.901C194.024 186.401 193.499 184.958 192.73 183.642C192.151 182.691 191.362 181.883 190.424 181.277C189.613 180.759 188.718 180.383 187.778 180.167C186.977 179.984 186.157 179.89 185.334 179.886C184.768 179.881 184.201 179.915 183.64 179.989" fill="#FFDC2E"/>
</svg>
