<svg width="25" height="26" viewBox="0 0 25 26" fill="none" xmlns="http://www.w3.org/2000/svg">
<path fill-rule="evenodd" clip-rule="evenodd" d="M12.5 25.5C19.4036 25.5 25 19.9036 25 13C25 6.09644 19.4036 0.5 12.5 0.5C5.59644 0.5 0 6.09644 0 13C0 19.9036 5.59644 25.5 12.5 25.5ZM15.7092 6.5C15.709 7.30689 15.9973 8.08637 16.5204 8.69333C17.5612 9.91444 19 9.84444 19 9.84444V12.2478C17.8194 12.2498 16.6681 11.8743 15.7092 11.1744V16.0667C15.7092 18.5167 13.7577 20.5 11.3546 20.5C9.11225 20.5 7 18.6567 7 16.0667C7 13.4067 9.31122 11.3222 11.9515 11.68V14.1378C10.6429 13.7256 9.37245 14.7289 9.37245 16.0667C9.37245 17.1867 10.2755 18.0889 11.3622 18.0889C11.8761 18.0888 12.3699 17.8861 12.7396 17.5234C13.1093 17.1607 13.3261 16.6664 13.3444 16.1444V6.5H15.7092Z" fill="#36845B"/>
</svg>
