<svg width="40" height="41" viewBox="0 0 40 41" fill="none" xmlns="http://www.w3.org/2000/svg">
<path fill-rule="evenodd" clip-rule="evenodd" d="M20 0.494751C8.9579 0.494751 0 9.45265 0 20.4948C0 31.5369 8.9579 40.4948 20 40.4948C31.0421 40.4948 40 31.5369 40 20.4948C40 9.45265 31.0421 0.494751 20 0.494751ZM14.274 10.0737H25.7266C28.3161 10.0737 30.4213 12.1789 30.4213 14.7684V26.2211C30.4213 28.8105 28.3161 30.9158 25.7266 30.9158H14.274C11.6845 30.9158 9.57921 28.8105 9.57921 26.2211V14.7684C9.57921 12.1789 11.6845 10.0737 14.274 10.0737ZM13.747 20.4947C13.747 23.9368 16.5575 26.7474 19.9997 26.7474C23.4418 26.7474 26.2523 23.9368 26.2523 20.4947C26.2523 17.0526 23.4418 14.2421 19.9997 14.2421C16.5575 14.2421 13.747 17.0526 13.747 20.4947ZM26.6421 15.2842C25.8526 15.2842 25.2105 14.6421 25.2105 13.8526C25.2105 13.0631 25.8526 12.421 26.6421 12.421C27.4315 12.421 28.0736 13.0631 28.0736 13.8526C28.0736 14.6421 27.4315 15.2842 26.6421 15.2842ZM15.8317 20.4948C15.8317 18.2001 17.7054 16.3264 20.0001 16.3264C22.2949 16.3264 24.1686 18.2001 24.1686 20.4948C24.1686 22.7895 22.2949 24.6632 20.0001 24.6632C17.7054 24.6632 15.8317 22.7895 15.8317 20.4948ZM25.7269 32.9895C29.4637 32.9895 32.4953 29.9579 32.4953 26.2211V14.7685C32.4953 11.0316 29.4637 7.98952 25.7269 7.98952H14.2743C10.5374 7.98952 7.49531 11.0316 7.49531 14.7685V26.2211C7.49531 29.9579 10.5374 32.9895 14.2743 32.9895H25.7269Z" fill="#36845B"/>
</svg>
