<svg width="40" height="40" viewBox="0 0 40 40" fill="none" xmlns="http://www.w3.org/2000/svg">
<path fill-rule="evenodd" clip-rule="evenodd" d="M20 40C31.0457 40 40 31.0457 40 20C40 8.9543 31.0457 0 20 0C8.9543 0 0 8.9543 0 20C0 31.0457 8.9543 40 20 40ZM25.1346 9.6C25.1343 10.891 25.5955 12.1382 26.4326 13.1093C28.0979 15.0631 30.3999 14.9511 30.3999 14.9511V18.7964C28.511 18.7997 26.6689 18.1989 25.1346 17.0791V24.9067C25.1346 28.8267 22.0122 32 18.1673 32C14.5795 32 11.1999 29.0507 11.1999 24.9067C11.1999 20.6507 14.8979 17.3156 19.1224 17.888V21.8204C17.0285 21.1609 14.9958 22.7662 14.9958 24.9067C14.9958 26.6987 16.4407 28.1422 18.1795 28.1422C19.0017 28.1421 19.7918 27.8177 20.3833 27.2374C20.9749 26.6571 21.3218 25.8662 21.3509 25.0311V9.6H25.1346Z" fill="#36845B"/>
</svg>
