<svg width="24" height="20" viewBox="0 0 24 20" fill="none" xmlns="http://www.w3.org/2000/svg">
<path d="M24 5.76V15.9375C24.0001 16.9752 23.6189 17.9735 22.9348 18.7278C22.2507 19.482 21.3154 19.935 20.3208 19.9938L20.1 20H3.9C2.90383 20.0001 1.94541 19.6031 1.22132 18.8904C0.49724 18.1778 0.0623984 17.2035 0.00600014 16.1675L0 15.9375V5.76L11.5824 12.08C11.7113 12.1503 11.8545 12.187 12 12.187C12.1455 12.187 12.2887 12.1503 12.4176 12.08L24 5.76ZM3.9 2.95064e-08H20.1C21.0667 -0.000121268 21.999 0.373744 22.716 1.04908C23.4331 1.72442 23.8838 2.6531 23.9808 3.655L12 10.1925L0.0192 3.655C0.112228 2.69289 0.53166 1.7969 1.2021 1.12808C1.87254 0.459261 2.75002 0.0614837 3.6768 0.00625017L3.9 2.95064e-08Z" fill="#FFF"/>
</svg>
