<svg width="38" height="38" viewBox="0 0 38 38" fill="none" xmlns="http://www.w3.org/2000/svg">
<circle cx="19" cy="19" r="19" fill="#36845B"/>
<path fill-rule="evenodd" clip-rule="evenodd" d="M18.9996 10.1428C17.1588 10.1428 15.6662 11.5821 15.6662 13.3571C15.6662 15.1324 17.1588 16.5714 18.9996 16.5714C20.8403 16.5714 22.3329 15.1324 22.3329 13.3571C22.3329 11.5821 20.8403 10.1428 18.9996 10.1428ZM13.4439 13.3571C13.4439 10.3985 15.9313 8 18.9996 8C22.0678 8 24.5552 10.3985 24.5552 13.3571C24.5552 15.0367 23.7538 16.5355 22.4996 17.5177C26.2301 18.3918 29 21.634 29 25.5001V26.2142C29 27.2005 28.1708 28 27.148 28H10.852C9.82915 28 9 27.2005 9 26.2142V25.5001C9 21.6341 11.7696 18.392 15.5004 17.5177C14.2462 16.5355 13.4448 15.0367 13.4448 13.3571H13.4439ZM17.5181 19.4286C14.0406 19.4286 11.2217 22.1468 11.2217 25.5V25.8571H26.7774V25.5C26.7774 22.1468 23.9585 19.4286 20.481 19.4286H17.5181Z" fill="white"/>
</svg>
