<svg width="30" height="31" viewBox="0 0 30 31" fill="none" xmlns="http://www.w3.org/2000/svg">
<path fill-rule="evenodd" clip-rule="evenodd" d="M0 15.4105C0 7.12894 6.71605 0.410522 15 0.410522C23.2839 0.410522 30 7.12894 30 15.4105C30 23.6921 23.2839 30.4105 15 30.4105C6.71605 30.4105 0 23.6921 0 15.4105ZM22.7013 12.3158C22.7013 12.15 22.6966 11.9842 22.6895 11.8184C23.4411 11.2816 24.094 10.6026 24.6095 9.82896C23.9195 10.1369 23.1782 10.3421 22.3998 10.4369C23.194 9.96317 23.8035 9.20528 24.0916 8.30528C23.3479 8.74738 22.5245 9.07107 21.649 9.23686C20.9463 8.49475 19.9477 8.02896 18.8408 8.02896C16.7163 8.02896 14.9937 9.75002 14.9937 11.8737C14.9937 12.1737 15.0285 12.4658 15.094 12.75C11.8966 12.5921 9.06161 11.0605 7.16451 8.7316C6.83372 9.30002 6.64345 9.95528 6.64345 10.6658C6.64345 12 7.32319 13.1763 8.35582 13.8632C7.72503 13.8474 7.13135 13.6737 6.61345 13.3816C6.61187 13.3974 6.61187 13.4211 6.61187 13.4369C6.61187 15.3 7.93819 16.8553 9.69793 17.2026C9.37503 17.2895 9.03556 17.3369 8.68503 17.3369C8.43714 17.3369 8.19556 17.3132 7.96108 17.2658C8.45056 18.7974 9.87082 19.9105 11.5548 19.9421C10.2379 20.9763 8.57924 21.5842 6.77687 21.5842C6.46661 21.5842 6.1603 21.5684 5.85951 21.5369C7.56161 22.6263 9.58424 23.2658 11.7561 23.2658C18.8313 23.2658 22.7013 17.4 22.7013 12.3158Z" fill="#36845B"/>
</svg>
