<svg width="30" height="30" viewBox="0 0 30 30" fill="none" xmlns="http://www.w3.org/2000/svg">
<path fill-rule="evenodd" clip-rule="evenodd" d="M0 15C0 6.71842 6.71842 0 15 0C23.2816 0 30 6.71842 30 15C30 23.2816 23.2816 30 15 30C6.71842 30 0 23.2816 0 15ZM8.80121 20.3571H11.6889V11.7731H8.80121V20.3571ZM8.57114 9.04375C8.57114 9.89612 9.32011 10.6021 10.2435 10.6021C11.1666 10.6021 11.9159 9.89612 11.9159 9.04375C11.9159 8.63432 11.7397 8.24166 11.426 7.95215C11.1124 7.66264 10.687 7.49999 10.2435 7.49999C9.79996 7.49999 9.37459 7.66264 9.06096 7.95215C8.74734 8.24166 8.57114 8.63432 8.57114 9.04375ZM19.6151 20.3571H22.4966H22.4997V15.6418C22.4997 13.3343 21.9625 11.5578 19.04 11.5578C17.635 11.5578 16.6932 12.2696 16.3077 12.944H16.2673V11.7731H13.4978V20.3571H16.3823V16.1067C16.3823 14.9874 16.6124 13.9055 18.1138 13.9055C19.5934 13.9055 19.6151 15.1826 19.6151 16.1785V20.3571Z" fill="#36845B"/>
</svg>
