<svg width="18" height="22" viewBox="0 0 18 22" fill="none" xmlns="http://www.w3.org/2000/svg">
<path d="M9 11C9.58438 11 10.0848 10.7942 10.5013 10.3826C10.9171 9.9717 11.125 9.4775 11.125 8.9C11.125 8.3225 10.9171 7.82795 10.5013 7.41635C10.0848 7.00545 9.58438 6.8 9 6.8C8.41563 6.8 7.91554 7.00545 7.49975 7.41635C7.08325 7.82795 6.875 8.3225 6.875 8.9C6.875 9.4775 7.08325 9.9717 7.49975 10.3826C7.91554 10.7942 8.41563 11 9 11ZM9 18.7175C11.1604 16.7575 12.763 14.9767 13.8078 13.3751C14.8526 11.7742 15.375 10.3525 15.375 9.11C15.375 7.2025 14.7595 5.64045 13.5284 4.42385C12.298 3.20795 10.7885 2.6 9 2.6C7.21146 2.6 5.70165 3.20795 4.47056 4.42385C3.24019 5.64045 2.625 7.2025 2.625 9.11C2.625 10.3525 3.1474 11.7742 4.19219 13.3751C5.23698 14.9767 6.83958 16.7575 9 18.7175ZM9 21.5C6.14896 19.1025 4.01971 16.8755 2.61225 14.8188C1.20408 12.7629 0.5 10.86 0.5 9.11C0.5 6.485 1.3546 4.39375 3.06381 2.83625C4.77231 1.27875 6.75104 0.5 9 0.5C11.249 0.5 13.2277 1.27875 14.9362 2.83625C16.6454 4.39375 17.5 6.485 17.5 9.11C17.5 10.86 16.7963 12.7629 15.3888 14.8188C13.9806 16.8755 11.851 19.1025 9 21.5Z" fill="#838386"/>
</svg>
