<svg width="17" height="19" viewBox="0 0 17 19" fill="none" xmlns="http://www.w3.org/2000/svg">
<path d="M3.5625 0C2.90938 0 2.375 0.534375 2.375 1.1875V17.8125C2.375 18.4656 2.90938 19 3.5625 19H15.4375C16.0906 19 16.625 18.4656 16.625 17.8125V4.75L11.875 0H3.5625Z" fill="#FBFBFB"/>
<path d="M13.0625 4.75H16.625L11.875 0V3.5625C11.875 4.21562 12.4094 4.75 13.0625 4.75Z" fill="#CECECE"/>
<path d="M16.625 8.3125L13.0625 4.75H16.625V8.3125Z" fill="#E8E8E8"/>
<path d="M14.25 15.4375C14.25 15.7641 13.9828 16.0312 13.6562 16.0312H0.59375C0.267188 16.0312 0 15.7641 0 15.4375V9.5C0 9.17344 0.267188 8.90625 0.59375 8.90625H13.6562C13.9828 8.90625 14.25 9.17344 14.25 9.5V15.4375Z" fill="#F15642"/>
<path d="M2.58789 11.2498C2.58789 11.0931 2.71139 10.9221 2.9103 10.9221H4.00695C4.62445 10.9221 5.1802 11.3353 5.1802 12.1274C5.1802 12.8779 4.62445 13.2959 4.00695 13.2959H3.2143V13.9229C3.2143 14.1319 3.0813 14.25 2.9103 14.25C2.75355 14.25 2.58789 14.1319 2.58789 13.9229V11.2498ZM3.2143 11.52V12.7027H4.00695C4.3252 12.7027 4.57695 12.4219 4.57695 12.1274C4.57695 11.7955 4.3252 11.52 4.00695 11.52H3.2143Z" fill="white"/>
<path d="M6.10998 14.25C5.95323 14.25 5.78223 14.1645 5.78223 13.9561V11.2593C5.78223 11.0889 5.95323 10.9648 6.10998 10.9648H7.19713C9.36669 10.9648 9.3192 14.25 7.23988 14.25H6.10998ZM6.40923 11.5443V13.6711H7.19713C8.47904 13.6711 8.53604 11.5443 7.19713 11.5443H6.40923Z" fill="white"/>
<path d="M10.0888 11.5823V12.3369H11.2995C11.4705 12.3369 11.6415 12.5079 11.6415 12.6736C11.6415 12.8303 11.4705 12.9586 11.2995 12.9586H10.0888V13.9555C10.0888 14.1217 9.97068 14.2494 9.80443 14.2494C9.59543 14.2494 9.46777 14.1217 9.46777 13.9555V11.2587C9.46777 11.0883 9.59602 10.9642 9.80443 10.9642H11.4711C11.6801 10.9642 11.8036 11.0883 11.8036 11.2587C11.8036 11.4107 11.6801 11.5817 11.4711 11.5817H10.0888V11.5823Z" fill="white"/>
<path d="M13.6562 16.0312H2.375V16.625H13.6562C13.9828 16.625 14.25 16.3578 14.25 16.0312V15.4375C14.25 15.7641 13.9828 16.0312 13.6562 16.0312Z" fill="#CAD1D8"/>
</svg>
