<svg width="16" height="14" viewBox="0 0 16 14" fill="none" xmlns="http://www.w3.org/2000/svg">
<path d="M7.99961 10.1111C9.32509 10.1111 10.3996 9.06646 10.3996 7.77779C10.3996 6.48913 9.32509 5.44446 7.99961 5.44446C6.67413 5.44446 5.59961 6.48913 5.59961 7.77779C5.59961 9.06646 6.67413 10.1111 7.99961 10.1111Z" fill="#838386"/>
<path d="M5.6 0L4.136 1.55556H0V14H16V1.55556H11.864L10.4 0H5.6ZM8 11.6667C5.792 11.6667 4 9.92444 4 7.77778C4 5.63111 5.792 3.88889 8 3.88889C10.208 3.88889 12 5.63111 12 7.77778C12 9.92444 10.208 11.6667 8 11.6667Z" fill="#838386"/>
</svg>
