<svg width="22" height="18" viewBox="0 0 22 18" fill="none" xmlns="http://www.w3.org/2000/svg">
<path d="M1.86241 17.8611C1.59482 17.8611 1.37067 17.7699 1.18997 17.5873C1.00864 17.4054 0.917969 17.1798 0.917969 16.9105C0.917969 16.6412 1.00864 16.4155 1.18997 16.2337C1.37067 16.0511 1.59482 15.9599 1.86241 15.9599H20.7513C21.0189 15.9599 21.243 16.0511 21.4237 16.2337C21.6051 16.4155 21.6957 16.6412 21.6957 16.9105C21.6957 17.1798 21.6051 17.4054 21.4237 17.5873C21.243 17.7699 21.0189 17.8611 20.7513 17.8611H1.86241ZM3.7513 15.0093C3.23186 15.0093 2.78734 14.8233 2.41775 14.4512C2.04752 14.0786 1.86241 13.6309 1.86241 13.108V2.65123C1.86241 2.1284 2.04752 1.68065 2.41775 1.30801C2.78734 0.936004 3.23186 0.75 3.7513 0.75H18.8624C19.3819 0.75 19.8267 0.936004 20.1969 1.30801C20.5665 1.68065 20.7513 2.1284 20.7513 2.65123V13.108C20.7513 13.6309 20.5665 14.0786 20.1969 14.4512C19.8267 14.8233 19.3819 15.0093 18.8624 15.0093H3.7513ZM3.7513 13.108H18.8624V2.65123H3.7513V13.108Z" fill="#838386"/>
</svg>
