<svg width="17" height="13" viewBox="0 0 17 13" fill="none" xmlns="http://www.w3.org/2000/svg">
<path d="M8.25195 12.0366C7.97526 12.0366 7.83691 11.9878 7.83691 11.8901C7.83691 11.8169 7.91016 11.7152 8.05664 11.585L12.2681 7.43457H0.708008C0.472005 7.43457 0.292969 7.36133 0.170898 7.21484C0.0569661 7.06022 0 6.81608 0 6.48242V6.06738C0 5.74186 0.0569661 5.50586 0.170898 5.35938C0.292969 5.20475 0.472005 5.12744 0.708008 5.12744H12.2437L8.08105 1.02588C7.92643 0.871257 7.84912 0.765462 7.84912 0.708496C7.84912 0.61084 7.98747 0.562012 8.26416 0.562012H10.144C10.3719 0.562012 10.5713 0.598633 10.7422 0.671875C10.9131 0.745117 11.0799 0.863118 11.2427 1.02588L16.1499 5.89648C16.2557 6.01855 16.3086 6.14876 16.3086 6.28711C16.3086 6.42546 16.2557 6.55973 16.1499 6.68994L11.2305 11.585C11.0596 11.7477 10.8887 11.8657 10.7178 11.939C10.5469 12.0041 10.3475 12.0366 10.1196 12.0366H8.25195Z" fill="#36845B"/>
</svg>
