<?xml version="1.0" encoding="utf-8"?>
<!-- Generator: Adobe Illustrator 27.0.0, SVG Export Plug-In . SVG Version: 6.00 Build 0)  -->
<svg version="1.1" id="Capa_1" xmlns="http://www.w3.org/2000/svg" xmlns:xlink="http://www.w3.org/1999/xlink" x="0px" y="0px"
	 viewBox="0 0 1004.8 906.3" style="enable-background:new 0 0 1004.8 906.3;" xml:space="preserve">
<style type="text/css">
	.st0{opacity:0.4;}
	.st1{fill:#FFFFFF;}
</style>
<g class="st0">
	<path class="st1" d="M556.7,15.8L556.7,15.8c0,0.1-4.9,7.3-12.6,19.4c-7.6,12.1-17.9,29.2-28.5,48.7C505,103.5,494,125.7,485,148
		c-9,22.3-16,44.9-18.7,65.3c-2.7,20.5-0.7,37.1,3.7,50.5c4.5,13.4,11.4,23.5,18.7,31c7.3,7.6,15,12.5,20.8,15.6
		c5.8,3.1,9.8,4.3,9.8,4.3c0,0,4.7-3.9,11.7-10.9c7.1-7.1,16.7-17.4,26.5-30.3c9.9-12.9,20-28.4,28.3-45.9
		c8.3-17.5,14.8-36.9,17.3-57.7c2.4-20.8,0.7-40.9-3.2-59.2c-3.9-18.4-10-35-16.5-49.1c-6.4-14.1-13.2-25.5-18.3-33.5
		C560.3,20.2,556.8,15.8,556.7,15.8"/>
	<path class="st1" d="M206.8,471.7c-0.1,0-0.2,0-0.3,0c-0.1,0-0.2,0-0.3,0.1c-0.1,0-0.2,0-0.3,0c-0.1,0-0.2,0-0.3,0
		c-22.5,3.8-45.9,9.1-68.6,15c-22.7,5.9-44.6,12.3-63.9,18.3c-19.3,6-36,11.6-48.3,15.7c-12.3,4.1-20.2,6.8-21.9,7
		c-0.1,0-0.1,0-0.1,0c0,0-0.1,0-0.1,0c0,0-0.1,0-0.1,0c0,0,0,0,0,0c-0.1,0.3,5.6,5.2,15.6,12.1c10,6.9,24.3,15.9,41.5,24.4
		c17.2,8.5,37.4,16.6,59.1,21.7c21.7,5.1,44.9,7.3,68.3,4c0.1,0,0.2,0,0.3,0c0.1,0,0.2,0,0.3,0c0.1,0,0.2,0,0.3,0c0.1,0,0.2,0,0.3,0
		c0.2,0,0.3,0,0.5-0.1c0.2,0,0.3,0,0.5-0.1c0.2,0,0.3,0,0.5-0.1c0.2,0,0.3-0.1,0.5-0.1c11.5-1.6,22.3-4.1,32.6-7.4
		c10.3-3.2,19.9-7.1,28.9-11.4c9-4.3,17.3-9,25-13.9c7.7-4.9,14.6-9.9,20.9-14.9c6.3-4.9,11.8-9.8,16.6-14.3
		c4.8-4.5,8.9-8.6,12.2-12.1c3.3-3.5,5.8-6.4,7.5-8.4c1.7-2,2.6-3.2,2.7-3.2h0c0-0.2-2.4-3.2-7.3-7.3c-5-4.1-12.6-9.3-23.1-14.1
		c-10.5-4.8-23.8-9.2-40.3-11.5C249.3,468.9,229.8,468.5,206.8,471.7"/>
	<path class="st1" d="M1002.4,388.9L1002.4,388.9L1002.4,388.9L1002.4,388.9L1002.4,388.9L1002.4,388.9 M816.8,323.2
		c-0.3,0-0.6,0.1-0.9,0.1c-0.3,0-0.6,0.1-0.9,0.1c-0.3,0-0.6,0.1-0.9,0.1c-0.3,0.1-0.6,0.1-0.9,0.1c-23.1,3.4-43.8,10.6-61.8,19.6
		c-18,9-33.4,19.7-45.9,30c-12.5,10.3-22.1,20.2-28.7,27.5c-6.5,7.3-10,12-10.2,12.1v0c0,0.2,2.4,3.3,7.6,7.6
		c5.2,4.3,13.1,9.8,23.9,15c10.8,5.1,24.6,9.9,41.6,12.5c16.9,2.7,37,3.3,60.5,0.3c23.1-3.4,47-8.8,69.9-15
		c22.9-6.2,44.9-13.1,64.2-19.6c19.2-6.5,35.7-12.6,47.6-17.2c11.9-4.5,19.3-7.4,20.3-7.6c0,0,0,0,0,0h0c0,0,0,0,0,0c0,0,0,0,0,0
		c-0.1-0.5-6-5.7-16.3-13c-10.3-7.3-24.8-16.6-42.3-25.5c-17.4-8.9-37.7-17.3-59.4-22.7C862.8,322.3,839.7,320,816.8,323.2"/>
	<path class="st1" d="M100.6,323.3c0.4,0.8,3.1,7.5,8.2,17.4c5.1,9.9,12.4,23.2,22.1,37.2c9.6,14,21.5,28.9,35.5,41.9
		c14,13.1,30.2,24.5,48.4,31.6c6,2.3,12,4.2,18,5.5c6,1.4,12,2.2,17.9,2.8c5.9,0.5,11.8,0.6,17.6,0.4c5.8-0.2,11.5-0.7,17-1.5
		c5.8-0.8,11.5-1.9,16.9-3.2c5.4-1.3,10.7-2.8,15.7-4.4c5-1.6,9.7-3.3,14.1-5c4.4-1.7,8.5-3.5,12.2-5.2c3.7-1.7,7.1-3.4,10.1-4.9
		c3-1.5,5.5-2.9,7.6-4.1c2.1-1.2,3.7-2.2,4.8-2.8c1.1-0.7,1.7-1.1,1.7-1.1c0-0.1,0.3-4.5-0.5-11.4c-0.8-6.9-2.6-16.2-6.9-26.2
		c-4.2-10-10.7-20.7-20.9-30.2c-10.2-9.5-24-18-42.7-23.5c-18.5-4.7-40-7.8-61.7-9.7c-21.7-1.9-43.8-2.8-63.6-3.1
		c-19.8-0.3-37.4-0.1-50.1,0C109.2,323.9,101.2,323.9,100.6,323.3 M100.6,323.2L100.6,323.2L100.6,323.2
		C100.6,323.2,100.6,323.2,100.6,323.2C100.6,323.2,100.6,323.3,100.6,323.2C100.6,323.3,100.6,323.3,100.6,323.2
		C100.6,323.3,100.6,323.3,100.6,323.2C100.6,323.2,100.6,323.2,100.6,323.2C100.6,323.2,100.6,323.2,100.6,323.2
		C100.6,323.2,100.6,323.2,100.6,323.2"/>
	<path class="st1" d="M302.6,147.2c0,0-1.4,6.9-2.9,18.2c-1.5,11.3-3.1,26.9-3.6,44.5c-0.5,17.5,0.2,36.9,3.2,55.7
		c3.1,18.8,8.5,36.9,17.6,51.8c7.3,12.1,16.5,20.9,26.5,27.4c10,6.5,20.8,10.6,31.4,13c10.6,2.5,20.9,3.3,30,3.4
		c9.1,0.1,16.9-0.7,22.4-1.5c1.3-0.2,2.6-0.4,3.6-0.6c1.1-0.2,2-0.3,2.7-0.5c0.7-0.1,1.3-0.3,1.7-0.4c0.4-0.1,0.6-0.1,0.6-0.2h0
		c0,0,2.9-4.8,6.5-12.8c3.6-8,8.1-19.3,11.3-32.4c3.3-13.1,5.3-27.9,4.2-43c-1.1-15.1-5.3-30.5-14.7-44.7
		c-9.4-13.9-22.9-25.6-37.9-35.4c-15-9.8-31.4-17.7-46.7-24c-15.2-6.2-29.3-10.7-39.5-13.8C309,149.1,302.6,147.6,302.6,147.2
		 M302.6,147.2L302.6,147.2"/>
	<path class="st1" d="M899,153.2c-10.6,1.5-22.1,3.6-34.2,6.4c-12.1,2.8-24.7,6.3-37.4,10.7c-12.7,4.4-25.6,9.7-38.2,16.1
		c-12.6,6.4-24.9,13.8-36.6,22.5c-21.3,15.1-38.1,31.2-51.4,46.9c-13.3,15.7-23.1,30.9-30.2,44.2c-7.1,13.3-11.6,24.7-14.3,32.9
		c-2.7,8.1-3.6,12.9-3.6,12.9l0,0c0,0,1.1,0.2,3.3,0.5c2.2,0.2,5.4,0.5,9.5,0.6c4.1,0.1,9.2,0.1,15-0.2c5.8-0.3,12.5-0.9,19.8-1.9
		c7.1-1,14.8-2.4,23-4.4c8.2-2,17-4.5,26.2-7.7c9.2-3.2,18.8-7.2,28.7-11.9c9.9-4.8,20.2-10.4,30.6-17
		c21.3-13.5,41.3-29.7,59.3-46.6c18-16.8,34.1-34.3,47.5-50c13.4-15.7,24.2-29.8,31.6-40c7.4-10.1,11.5-16.4,11.5-16.5
		c0-0.3-1.5-0.6-4.4-0.9c-2.9-0.2-7.1-0.3-12.4-0.3c-5.3,0.1-11.8,0.3-19.1,0.9C916,151.1,907.8,152,899,153.2"/>
	<path class="st1" d="M797.1,2.4c-0.5,0.1-8,5.1-19.9,13.9c-11.9,8.8-28.1,21.5-45.9,36.8s-37.4,33.4-55.9,53
		c-18.5,19.6-35.9,40.8-49.7,62.5c-13.9,21.6-22.5,41.1-27.6,58.4c-5.1,17.3-6.7,32.2-6.6,44.4c0.1,12.2,2,21.7,3.8,28.2
		c1.8,6.5,3.6,9.9,3.6,9.9c0-0.1,5.2-1.9,13.9-5.9c8.7-4,20.9-10.2,34.7-19c13.9-8.8,29.4-20.2,44.9-34.6
		c15.5-14.4,31-31.8,44.6-52.5c13.6-20.8,24.2-43.4,32.4-65.6c8.2-22.2,14-44,18.1-63.1c4.1-19.2,6.5-35.7,7.9-47.5
		C796.8,9.4,797.1,2.4,797.1,2.4L797.1,2.4C797.1,2.4,797.1,2.4,797.1,2.4L797.1,2.4L797.1,2.4"/>
	<path class="st1" d="M483.5,602.8L483.5,602.8c0,0-4.7,3.8-11.9,10.7c-7.2,6.9-17,17-27.1,29.7c-10.1,12.7-20.5,27.9-29.1,45.1
		c-8.6,17.2-15.3,36.4-18,57c-2.7,20.6-1.1,40.9,3,59.6c4,18.7,10.4,36,17.2,50.7c6.8,14.7,13.9,26.8,19.3,35.2
		c5.4,8.4,9.1,13.2,9.2,13.2c0,0,5.3-7,13.2-18.9c7.9-11.9,18.6-28.5,29.6-47.8c11-19.3,22.3-41.2,31.4-63.5
		c9.1-22.3,16.2-45,18.6-65.9c2.5-20.9,0.3-37.9-4.4-51.7c-4.7-13.8-11.9-24.3-19.4-32.2c-7.5-7.9-15.3-13.2-21.3-16.5
		C487.7,604.1,483.6,602.8,483.5,602.8"/>
	<path class="st1" d="M348.9,570.1L348.9,570.1 M299.3,571.1c-7.1,1-14.7,2.4-22.9,4.3c-8.2,1.9-16.9,4.3-26,7.3
		c-9.1,3-18.7,6.7-28.5,11.2c-9.9,4.4-20.1,9.7-30.5,15.7c-21.7,12.7-42.4,27.9-61.3,43.4c-18.9,15.5-35.9,31.4-50.2,45.8
		c-14.3,14.3-25.9,27.1-34,36.3c-8,9.2-12.5,14.8-12.5,14.8c-0.1,0.4,2.1,0.8,6.2,1.2c4,0.4,9.9,0.7,17.3,0.8
		c7.4,0.1,16.2-0.1,26.1-0.7c9.9-0.6,20.9-1.6,32.6-3.3c10.1-1.4,20.7-3.3,31.6-5.7c10.9-2.4,22-5.4,33.2-9.1
		c11.2-3.7,22.3-8.1,33.3-13.2c11-5.2,21.7-11.1,31.9-18c21.9-14.1,39.3-29.4,53.1-44.4c13.8-15,24-29.7,31.4-42.6
		c7.4-12.9,12.1-24.1,15-32.1c2.8-8,3.8-12.7,3.9-12.7c0-0.1-1.2-0.3-3.5-0.5c-2.3-0.3-5.6-0.5-9.9-0.6c-4.3-0.1-9.5-0.1-15.6,0.2
		C313.8,569.4,306.9,570,299.3,571.1"/>
	<path class="st1" d="M402.8,606c0,0-5.3,1.8-14.1,5.6c-8.8,3.8-21.2,9.8-35.3,18.2c-14.1,8.4-30.1,19.3-46.1,33
		c-16,13.7-32,30.3-46.4,50.2c-14.4,19.9-25.8,41.5-34.7,62.7c-9,21.3-15.5,42.2-20.3,60.6c-4.8,18.4-7.7,34.4-9.5,45.8
		c-1.8,11.4-2.4,18.2-2.4,18.2c0,0,0,0,0,0l0,0c0,0,0,0,0,0s0,0,0,0c0.8-0.1,8.9-4.6,21.5-12.5c12.6-8,29.7-19.4,48.4-33.5
		c18.8-14.1,39.2-30.8,58.5-49.2c19.3-18.4,37.5-38.6,51.7-59.7c14.4-21,23.3-40.2,28.7-57.2c5.4-17,7.1-31.8,7.1-44
		c0-12.2-1.9-21.7-3.7-28.2C404.6,609.4,402.8,606,402.8,606"/>
	<path class="st1" d="M915.8,611.7C915.8,611.8,915.8,611.8,915.8,611.7C915.9,611.8,915.9,611.8,915.8,611.7
		C915.9,611.8,915.9,611.8,915.8,611.7L915.8,611.7L915.8,611.7C915.9,611.8,915.9,611.8,915.8,611.7
		C915.9,611.8,915.9,611.8,915.8,611.7C915.8,611.8,915.8,611.8,915.8,611.7 M717.4,461.2c-5.7,0.8-11.2,1.9-16.5,3.1
		c-5.3,1.3-10.4,2.7-15.2,4.2c-4.8,1.5-9.4,3.2-13.7,4.9c-4.3,1.7-8.2,3.4-11.8,5c-3.6,1.7-6.9,3.3-9.7,4.8c-2.9,1.5-5.3,2.8-7.3,4
		c-2,1.1-3.6,2.1-4.7,2.7c-1.1,0.7-1.7,1-1.8,1l0,0c0,0.1-0.2,4.6,0.7,11.7c0.9,7.1,3,16.7,7.5,27.1c4.5,10.4,11.5,21.7,22.1,32
		c10.7,10.3,25.1,19.6,44.6,26.2c19.4,5.8,41.6,10,64.2,13.1c22.6,3.1,45.4,5.1,65.9,6.5c20.5,1.4,38.7,2.1,51.9,2.6
		c13.2,0.5,21.5,0.9,22.2,1.5c-0.4-0.9-3.6-8.3-9.4-19.3c-5.8-11-14.1-25.7-24.7-41.3c-10.6-15.5-23.6-32-38.6-46.4
		c-15-14.5-32-27-50.9-34.9c-6.4-2.7-12.9-4.8-19.3-6.3c-6.4-1.6-12.8-2.6-19.1-3.2c-6.3-0.6-12.5-0.8-18.6-0.6
		C729.1,459.9,723.2,460.4,717.4,461.2"/>
	<path class="st1" d="M575.6,558.7c-0.9,0.1-1.7,0.3-2.4,0.4c-0.7,0.1-1.3,0.2-1.8,0.3c-0.5,0.1-0.9,0.2-1.1,0.2
		c-0.3,0.1-0.4,0.1-0.4,0.1c0,0-2.8,4.8-6.4,12.8c-3.6,8-8.1,19.4-11.3,32.6c-3.2,13.2-5.2,28.3-3.8,43.8
		c1.3,15.5,5.9,31.5,15.8,46.5c10,14.6,24.3,27.6,40.2,38.7c15.9,11.2,33.4,20.6,49.7,28.3c16.2,7.7,31.3,13.6,42.2,17.6
		c10.9,4.1,17.8,6.3,17.8,6.7v0c0,0,1.2-7.3,2.3-19.2c1.1-11.9,2.2-28.5,2-47c-0.2-18.6-1.6-39.1-5.4-59.1
		c-3.8-19.9-10.1-39.3-20-55.4c-8.4-13.6-18.6-23.5-29.7-30.8c-11-7.2-22.8-11.7-34.2-14.4c-11.4-2.7-22.3-3.6-31.6-3.7
		C588.2,557.3,580.5,558,575.6,558.7"/>
</g>
</svg>
