<svg width="30" height="30" viewBox="0 0 30 30" fill="none" xmlns="http://www.w3.org/2000/svg">
<path fill-rule="evenodd" clip-rule="evenodd" d="M0 15C0 6.71842 6.71842 0 15 0C23.2816 0 30 6.71842 30 15C30 23.2816 23.2816 30 15 30C6.71842 30 0 23.2816 0 15ZM19.0169 21.9308L21.5521 9.71062V9.71123C21.7771 8.63365 21.1735 8.2123 20.4834 8.47664L5.57963 14.3454C4.56312 14.752 4.57812 15.3347 5.40681 15.599L9.21721 16.8182L18.0682 11.1218C18.484 10.8379 18.8632 10.9955 18.5518 11.2788L11.3924 17.8909L11.1146 21.9118C11.5125 21.9118 11.6847 21.7358 11.8911 21.5248L13.7549 19.6922L17.6181 22.6017C18.3268 23.0078 18.8254 22.7931 19.0169 21.9308Z" fill="#003366"/>
</svg>
