<svg width="19" height="20" viewBox="0 0 19 20" fill="none" xmlns="http://www.w3.org/2000/svg">
<path opacity="0.3" fill-rule="evenodd" clip-rule="evenodd" d="M9.5 2.46554C5.3388 2.46554 1.96548 5.83896 1.96548 10.0003C1.96548 14.1616 5.3388 17.5345 9.5 17.5345C13.6612 17.5345 17.0345 14.161 17.0345 10.0003C17.0345 5.83952 13.6612 2.46554 9.5 2.46554ZM0 10.0003C0 4.75342 4.2533 0.5 9.5 0.5C14.7467 0.5 19 4.75342 19 10.0003C19 15.2471 14.7467 19.5 9.5 19.5C4.2533 19.5 0 15.2466 0 10.0003ZM10.4827 4.75848C10.4827 4.21599 10.0425 3.77571 9.5 3.77571C8.95753 3.77571 8.51726 4.21599 8.51726 4.75848V10.4602L8.87105 10.755L12.802 14.0313C13.2192 14.3789 13.8387 14.3222 14.1863 13.9055C14.5333 13.4888 14.4772 12.8688 14.0605 12.5218L10.4833 9.54034L10.4827 4.75848Z" fill="#333333"/>
</svg>
