<svg width="44" height="44" viewBox="0 0 44 44" fill="none" xmlns="http://www.w3.org/2000/svg">
<path d="M40.334 22C40.334 32.12 32.1207 40.3333 22.0007 40.3333C11.8806 40.3333 3.66732 32.12 3.66732 22C3.66732 11.88 11.8806 3.66666 22.0007 3.66666C32.1207 3.66666 40.334 11.88 40.334 22ZM7.33398 22C7.33398 30.1033 13.8973 36.6667 22.0007 36.6667C30.104 36.6667 36.6673 30.1033 36.6673 22C36.6673 13.8967 30.104 7.33332 22.0007 7.33332C13.8973 7.33332 7.33398 13.8967 7.33398 22ZM29.334 22L22.0007 14.6667L19.4157 17.2517L22.3123 20.1667H14.6673V23.8333H22.3123L19.3973 26.7483L22.0007 29.3333L29.334 22Z" fill="#57B45F"/>
</svg>
