<svg width="44" height="44" viewBox="0 0 44 44" fill="none" xmlns="http://www.w3.org/2000/svg">
<path d="M3.66602 22C3.66602 32.12 11.8793 40.3333 21.9993 40.3333C32.1194 40.3333 40.3327 32.12 40.3327 22C40.3327 11.88 32.1194 3.66666 21.9993 3.66666C11.8793 3.66666 3.66602 11.88 3.66602 22ZM36.666 22C36.666 30.1033 30.1027 36.6667 21.9993 36.6667C13.896 36.6667 7.33268 30.1033 7.33268 22C7.33268 13.8967 13.896 7.33332 21.9993 7.33332C30.1027 7.33332 36.666 13.8967 36.666 22ZM14.666 22L21.9993 14.6667L24.5843 17.2517L21.6877 20.1667H29.3327V23.8333H21.6877L24.6027 26.7483L21.9993 29.3333L14.666 22Z" fill="#57B45F"/>
</svg>
