<svg width="25" height="26" viewBox="0 0 25 26" fill="none" xmlns="http://www.w3.org/2000/svg">
<path fill-rule="evenodd" clip-rule="evenodd" d="M12.5 26C19.4036 26 25 20.4036 25 13.5C25 6.59644 19.4036 0.999996 12.5 0.999996C5.59644 0.999996 0 6.59644 0 13.5C0 20.4036 5.59644 26 12.5 26ZM19.1418 8.35893C19.8732 8.55646 20.4493 9.13853 20.6448 9.87759C21 11.2172 21 14.0121 21 14.0121C21 14.0121 21 16.8071 20.6448 18.1467C20.4493 18.8857 19.8732 19.4435 19.1418 19.6411C17.816 20 12.5 20 12.5 20C12.5 20 7.184 20 5.85824 19.6411C5.12682 19.4435 4.55077 18.8857 4.35526 18.1467C4.00003 16.8071 4.00003 14.0121 4.00003 14.0121C4.00003 14.0121 4.00003 11.2172 4.35526 9.87759C4.55077 9.13853 5.12682 8.55649 5.85824 8.35893C7.184 7.99999 12.5 7.99999 12.5 7.99999C12.5 7.99999 17.8161 7.99999 19.1418 8.35893ZM15.2045 14.0122L10.7614 11.4745V16.5497L15.2045 14.0122Z" fill="#36845B"/>
</svg>
